<svg xmlns="http://www.w3.org/2000/svg" viewBox="0 0 492 207.39167" shape-rendering="auto">
  <defs>
    <style>
      .b1344ad3-8900-4811-ab7e-5d112f904cee {
        fill: #deefdc;
      }

      .a4072013-23c3-461f-96bf-7560d41d2e04 {
        fill: #9bd08e;
      }

      .f3e86d5f-5d2b-405c-9a43-220479438a95 {
        fill: #c8e4be;
      }

      .b24ace61-5236-4593-83da-cdefef44ce92 {
        fill: #fff;
      }

      .af68b5c4-ca1e-476f-9972-ba25413dbbe4 {
        fill: #4c8f5a;
      }
    </style>
  </defs>
  <g id="f6e66e33-2138-4145-aa15-fd2df07e7654" data-name="Layer 2" shape-rendering="auto">
    <g id="aa835258-cfdc-4190-a07c-dda5ca978d0e" data-name="Layer 1">
      <g>
        <path shape-rendering="auto" class="b1344ad3-8900-4811-ab7e-5d112f904cee" d="M.03254,116.96406Q.03254,59.18023,0,1.39644C-.00119.22923.229-.00178,1.3981,0Q42.70558.06335,84.0132.03276a10.74758,10.74758,0,0,0,.143,1.51886,124.11274,124.11274,0,0,0,6.4744,20.5463,112.76527,112.76527,0,0,0,9.71978,18.23021,111.09033,111.09033,0,0,0,12.64631,16.391A90.11209,90.11209,0,0,0,128.897,69.95322c9.24372,5.89156,19.3703,8.66856,30.22409,9.21794,5.05125.25567,10.09659-.0394,15.14415.00121a77.60041,77.60041,0,0,0,11.52971-.78628c9.7811-1.38883,17.88084-6.199,24.95772-12.85068,7.72956-7.26519,14.413-15.55049,22.16324-22.802a30.82293,30.82293,0,0,1,15.77492-8.204c7.62283-1.37035,15.20371-.63986,22.76335.76954,6.90047,1.28651,13.7738,2.68352,20.60819,4.28422,5.67794,1.32985,11.457,2.1506,17.175,3.267a62.25244,62.25244,0,0,0,19.29752.81c12.57585-1.47278,21.28779-8.46265,27.24369-19.31168a84.705,84.705,0,0,0,6.52848-15.65259c.88689-2.848,2.26389-5.58725,2.32439-8.66315H491.62665q.00095,30.3932-.00075,60.7864c-.00037,2.15536-.0365,4.31072-.05605,6.46608a6.05972,6.05972,0,0,1-.58613-.61211c-2.83918-3.91041-7.03594-4.25867-10.5808-2.57943a50.00536,50.00536,0,0,1-6.52615,2.462,189.31577,189.31577,0,0,0-20.91507,7.624,57.878,57.878,0,0,0-24.767,20.89507c-3.781,5.585-6.74535,11.67-10.57118,17.22976a52.79922,52.79922,0,0,1-10.49891,11.51759c-5.8113,4.63819-12.56844,7.42922-19.46381,9.94871-7.99808,2.9224-16.12581,5.438-24.32442,7.73409-7.416,2.07693-14.94967,3.72227-22.28136,6.10945-7.8233,2.54725-14.982,6.24937-20.80655,12.15834-6.20619,6.29609-9.96942,14.01692-12.3965,22.39187-2.34422,8.089-2.526,16.41962-2.22969,24.7705q-20.04077.01427-40.08156.02693-50.82822-.00085-101.65647-.01444a1.57335,1.57335,0,0,0-.40731-1.2503c-2.09044-2.30243-4.10748-4.67458-6.26262-6.91444a135.62591,135.62591,0,0,0-14.37067-12.39523,118.31409,118.31409,0,0,0-13.36911-8.55c-2.94113-1.727-6.09383-3.191-9.174-4.72727a92.60416,92.60416,0,0,0-15.60138-5.90714c-5.74813-1.67075-11.69351-2.04222-17.60572-2.46032-5.48822-.38811-11.00305-.06107-16.51544-.2964-6.638-.28338-13.1288-.80472-19.45922-3.0573a44.21035,44.21035,0,0,1-8.80431-4.48628c-4.5053-2.85076-8.15421-6.72169-11.73376-10.63152a81.23379,81.23379,0,0,1-5.86037-6.55414c-2.4479-3.34044-5.40017-6.22628-8.04644-9.38124-2.68279-3.19851-5.64386-6.17264-8.23359-9.46931-1.46819-1.869-2.96752-3.77175-5.6809-3.83854Q1.396,116.99466.03254,116.96406Z"/>
        <path shape-rendering="auto"  class="a4072013-23c3-461f-96bf-7560d41d2e04" d="M364.6315.03276c-.0605,3.0759-1.4375,5.81514-2.32439,8.66315a84.705,84.705,0,0,1-6.52848,15.65259c-5.9559,10.849-14.66784,17.8389-27.24369,19.31168a62.25244,62.25244,0,0,1-19.29752-.81c-5.718-1.1164-11.4971-1.93715-17.175-3.267-6.83439-1.6007-13.70772-2.99771-20.60819-4.28422-7.55964-1.4094-15.14052-2.13989-22.76335-.76954a30.82293,30.82293,0,0,0-15.77492,8.204c-7.75019,7.25151-14.43368,15.53681-22.16324,22.802-7.07688,6.65172-15.17662,11.46185-24.95772,12.85068a77.60041,77.60041,0,0,1-11.52971.78628c-5.04756-.04061-10.0929.25446-15.14415-.00121-10.85379-.54938-20.98037-3.32638-30.22409-9.21794A90.11209,90.11209,0,0,1,112.99673,56.7191a111.09033,111.09033,0,0,1-12.64631-16.391,112.76527,112.76527,0,0,1-9.71978-18.23021,124.11274,124.11274,0,0,1-6.4744-20.5463,10.74758,10.74758,0,0,1-.143-1.51886Z"/>
        <path shape-rendering="auto" class="f3e86d5f-5d2b-405c-9a43-220479438a95" d="M.03254,116.96406q1.36341.032,2.72681.06415c2.71338.06679,4.21271,1.96956,5.6809,3.83854,2.58973,3.29667,5.5508,6.2708,8.23359,9.46931,2.64627,3.155,5.59854,6.0408,8.04644,9.38124a81.23379,81.23379,0,0,0,5.86037,6.55414c3.57955,3.90983,7.22846,7.78076,11.73376,10.63152a44.21035,44.21035,0,0,0,8.80431,4.48628c6.33042,2.25258,12.82123,2.77392,19.45922,3.0573,5.51239.23533,11.02722-.09171,16.51544.2964,5.91221.4181,11.85759.78957,17.60572,2.46032a92.60416,92.60416,0,0,1,15.60138,5.90714c3.0802,1.53629,6.2329,3.00022,9.174,4.72727a118.31409,118.31409,0,0,1,13.36911,8.55,135.62591,135.62591,0,0,1,14.37067,12.39523c2.15514,2.23986,4.17218,4.612,6.26262,6.91444a1.57459,1.57459,0,0,1,.40753,1.25059c-1.30827.00624-2.61675.01737-3.92524.01739q-79.96333.00014-159.92666-.00166Z"/>
        <path shape-rendering="auto" class="b24ace61-5236-4593-83da-cdefef44ce92" d="M.03254,206.96367q79.96332.00122,159.92666.00166c1.30849,0,2.617-.01115,3.92524-.01739q50.82789.00755,101.65625.01415,20.04077.0003,40.08156-.02691c.51191.01,1.0238.02868,1.53571.0287q91.40247.00134,182.8049.039c1.5324.00114,1.692-.51586,1.69109-1.82732q-.04914-66.30409-.02959-132.60823c-.00013-1.76069-.03551-3.52137-.05451-5.28207.01955-2.15535.05568-4.31071.05605-6.46607q.00563-30.39319.00075-60.7864c.105.07431.356-.1724.345.17057-.01459.45407-.00358.909-.00358,1.36351q0,102.10182.032,204.20361c.00067,1.27809-.28821,1.56606-1.56815,1.56579q-244.43151-.05012-488.863-.05268C1.06927,207.2835.41126,207.67672.03254,206.96367Z"/>
        <path shape-rendering="auto" class="af68b5c4-ca1e-476f-9972-ba25413dbbe4" d="M491.56985,67.28524c.019,1.76069.05438,3.52137.05451,5.28206q.00456,66.30414.02959,132.60823c.001,1.31146-.15869,1.82846-1.69109,1.82732q-91.40241-.06807-182.8049-.039c-.51191,0-1.0238-.01873-1.53571-.02872-.29633-8.35088-.11453-16.6815,2.22969-24.7705,2.42708-8.37495,6.19031-16.09578,12.3965-22.39187,5.82456-5.909,12.98325-9.61109,20.80655-12.15834,7.33169-2.38718,14.86537-4.03252,22.28136-6.10945,8.19861-2.29612,16.32634-4.81169,24.32442-7.73409,6.89537-2.51949,13.65251-5.31052,19.46381-9.94871a52.79922,52.79922,0,0,0,10.49891-11.51759c3.82583-5.55981,6.79015-11.64473,10.57118-17.22976a57.878,57.878,0,0,1,24.767-20.89507,189.31577,189.31577,0,0,1,20.91507-7.624,50.00536,50.00536,0,0,0,6.52615-2.462c3.54486-1.67924,7.74162-1.331,10.5808,2.57943A6.05972,6.05972,0,0,0,491.56985,67.28524Z"/>
      </g>
    </g>
  </g>
</svg>
