<svg width="153" height="54" viewBox="0 0 168 46" fill="none" xmlns="http://www.w3.org/2000/svg">
<g filter="url(#filter0_d)">
<path d="M30.0219 3.432C29.5179 3 28.9059 2.712 28.2579 2.46C26.6379 1.776 25.0899 1.488 23.3619 1.92C21.7059 2.352 20.1219 3.216 18.8619 4.368C17.9979 5.16 16.4859 6.492 16.3059 7.752L16.5579 7.392C16.1979 8.076 15.9459 8.76 15.8019 9.408C15.7659 9.408 15.8739 8.832 15.9099 8.832C15.3339 8.832 15.5139 11.028 15.5499 11.352C15.6219 12.828 16.0179 14.34 16.5939 15.708C17.3859 17.58 18.2499 19.416 18.9699 21.288L19.6179 22.908C19.6899 23.16 19.7979 23.448 19.9059 23.7C19.9419 23.7 20.0859 23.988 20.0859 23.952C20.1219 24.24 20.1939 24.456 20.2659 24.708C20.1939 24.528 20.0499 24.276 20.0499 24.132C19.9779 24.384 20.1939 24.708 20.2659 24.888C20.3379 25.248 20.3739 25.572 20.3739 25.932C20.3019 26.868 19.9779 27.768 19.5099 28.56C18.5739 30.108 17.0259 31.368 15.2979 31.908C14.0379 32.268 12.4899 32.268 11.9139 30.9C11.4099 29.784 11.6259 28.416 11.8779 27.264C12.0219 26.616 12.2019 25.968 12.4899 25.356C12.7059 24.78 13.8579 23.232 13.5339 22.656C12.7419 21.252 10.0779 24.78 9.71788 25.356C8.20587 27.804 7.48587 31.8 10.5819 33.384C12.7419 34.464 15.5859 34.284 17.7459 33.42C18.5019 33.132 21.7779 31.764 21.7419 30.684L21.0219 31.188C23.5059 29.028 24.5139 26.4 23.5419 23.16C23.0739 21.648 22.2099 20.424 21.3819 19.092C20.7699 18.012 20.5899 16.968 20.0859 15.852C20.7699 17.22 21.5979 18.552 22.3179 19.92C20.8419 16.536 17.9979 12.504 19.9059 8.724C20.7699 7.032 22.3179 5.628 24.0099 4.8C24.9819 4.332 26.1339 3.936 27.2499 3.972C28.5819 4.08 28.2939 4.944 28.2939 5.844C28.3659 5.304 28.6899 4.728 28.1499 4.188C27.6459 3.756 26.8179 3.9 26.2059 4.008C24.8019 4.26 23.5059 4.836 22.3899 5.664C23.1819 5.052 24.0819 4.548 25.0179 4.224C25.8459 3.936 27.0699 3.576 27.8979 3.936C29.9499 4.872 27.3219 8.796 26.3499 10.128C26.5299 9.804 26.8179 9.192 26.8899 9.12C26.3859 9.084 25.3779 11.604 25.1259 11.748C24.2619 12.648 25.3059 12.756 26.0259 12.324C26.8179 11.856 27.4659 11.1 28.0779 10.488C28.9059 9.624 29.6619 8.724 30.3099 7.752C30.7419 7.104 31.5339 6.06 31.1019 5.268C30.8139 4.584 30.6339 3.936 30.0219 3.432ZM9.89788 32.592C8.02587 30.252 8.88988 27.156 10.5819 24.852C9.10588 26.976 8.49388 30.828 9.89788 32.592ZM19.1859 11.64C19.2219 11.82 19.1859 12 19.1859 12.144V11.64ZM35.8187 21.144C35.7467 20.676 35.2427 20.82 34.9907 21C34.6667 21.216 32.8667 23.592 33.0107 23.772C33.1187 23.772 33.1907 23.772 33.2627 23.7C32.7587 24.312 31.8227 24.996 31.1387 25.536C30.7427 25.86 29.7707 26.76 29.1947 26.472C27.9707 25.86 30.4547 21.54 30.3467 21.504C30.2387 21.468 29.3387 23.484 29.1587 23.952C29.5907 22.692 30.1667 21.432 30.8507 20.316C30.8147 20.424 30.7067 20.604 30.7787 20.604C30.8507 20.64 31.3907 19.884 31.2827 19.812C31.2467 19.812 31.1747 19.812 31.1387 19.848C31.2467 19.74 31.4267 19.704 31.4267 19.488C31.4267 19.128 30.5987 18.768 30.3107 18.66C29.6267 18.372 28.9427 18.3 28.4027 18.66C27.6827 19.092 27.5387 19.956 27.2507 20.712C27.1787 20.928 26.4947 23.484 26.6387 23.52C26.7107 23.484 26.7107 23.448 26.7467 23.376L26.6387 24.024C26.6027 24.024 26.6747 23.844 26.6027 23.844C26.3147 23.844 26.3867 25.14 26.4227 25.32C26.5667 25.968 27.0707 26.436 27.4667 26.976C27.6827 27.3 27.8987 27.624 28.2227 27.84C28.6547 28.164 28.3667 27.84 28.6547 27.984H28.5827C28.5467 28.2 29.9147 28.56 30.2027 28.524C31.4627 28.236 32.3627 26.688 33.0827 25.716C33.7667 24.852 34.3427 23.988 34.9547 23.088C35.3147 22.62 35.9627 21.828 35.8187 21.144ZM29.5187 16.608C29.5907 16.716 29.4827 16.86 29.7347 17.004C29.9867 17.112 30.1307 16.968 30.3467 16.896C30.7787 16.716 31.1027 16.248 31.4267 15.96C31.5347 15.888 31.3187 15.924 31.3187 15.924C31.7867 15.492 31.3907 15.996 31.8227 15.744C32.2547 15.456 32.3267 14.988 32.6867 14.592C32.2547 14.772 31.9307 15.024 31.6427 15.384C31.2827 15.852 31.0307 16.068 30.6347 16.32C31.0667 15.996 31.2827 15.672 31.6427 15.096C31.7507 14.988 31.8587 14.916 32.0027 14.844C31.8947 14.736 31.8947 14.628 32.0387 14.52C32.1467 14.34 32.3627 14.268 32.4707 14.088C32.6507 13.836 32.6147 13.512 32.8307 13.26C33.0107 13.116 33.2627 13.008 33.4067 12.864C33.7307 12.576 34.0907 12.036 33.9467 11.568C33.8027 11.136 33.4427 10.596 33.0467 10.344C32.5787 10.092 31.9307 9.984 31.4267 10.2C31.3187 10.236 30.8867 10.344 31.0307 10.488C31.0667 10.56 31.1027 10.56 31.1747 10.56C30.8507 10.812 30.3107 11.244 31.0667 11.532C30.9947 11.604 31.0667 11.928 31.0667 11.964C31.0307 12.216 30.5267 13.548 30.2027 14.196L30.6347 13.548C30.3827 14.088 30.0947 14.592 29.7707 15.024C29.9867 14.556 29.5547 15.096 29.5547 15.204C29.1587 15.024 29.2667 16.14 29.3027 16.248C29.3027 16.284 29.5187 16.608 29.5187 16.608ZM28.8347 25.176V25.212L28.7627 25.428L28.8347 25.14C28.8707 25.104 28.8707 25.104 28.8347 25.176ZM30.0227 14.484C30.0227 14.484 30.0947 14.412 30.1667 14.268L30.0227 14.484ZM29.6627 15.168C29.6627 15.204 29.6627 15.204 29.6267 15.24C29.6267 15.24 29.6267 15.204 29.5907 15.204C29.6267 15.204 29.6267 15.204 29.6627 15.168ZM46.995 21.108C46.995 21.144 46.995 21.144 46.959 21.108V21.072C46.383 20.1 45.627 21.432 45.303 21.9C44.691 22.728 44.115 23.52 43.467 24.276C42.927 24.924 42.351 25.572 41.919 26.256C41.919 26.328 41.847 26.508 41.847 26.508C41.703 26.724 41.487 26.904 41.307 27.12C40.983 27.444 40.659 27.804 40.299 28.128C39.759 28.632 36.735 31.476 36.339 29.64C36.123 28.74 36.411 27.624 36.591 26.76C36.699 26.292 36.807 25.86 36.879 25.392C36.951 25.032 36.843 24.672 37.023 24.312C37.131 24.096 37.167 24.132 37.419 24.06L38.031 23.844C38.427 23.7 38.823 23.556 39.183 23.34C39.723 23.016 40.227 22.62 40.695 22.224C41.811 21.288 42.999 20.172 43.467 18.768C43.719 17.976 43.755 17.112 43.251 16.428C42.783 15.816 41.991 15.492 41.271 15.348C39.327 14.988 37.851 16.104 36.735 17.58C35.367 19.272 34.395 21.36 33.927 23.484C33.675 24.528 33.531 25.572 33.351 26.652C33.171 27.732 33.063 28.74 33.639 29.748C33.603 29.388 33.531 29.064 33.531 28.74C33.531 28.56 33.603 28.38 33.603 28.236C33.603 28.164 33.531 27.948 33.531 27.84C33.531 27.516 33.603 27.264 33.675 26.94C33.711 26.616 33.675 26.292 33.711 25.968C33.747 25.608 33.891 25.32 34.035 24.996C34.143 24.708 34.179 24.456 34.287 24.168C34.395 23.916 34.467 23.628 34.575 23.34C34.611 23.16 34.791 22.944 34.899 22.728C34.791 23.052 34.575 23.34 34.503 23.628C34.395 24.06 34.467 24.528 34.431 24.96C34.359 25.428 34.215 25.896 34.143 26.4C34.071 26.868 33.855 27.3 33.783 27.768C33.711 28.2 33.567 28.524 33.603 28.956C33.603 29.208 33.639 29.46 33.675 29.676C33.711 29.964 33.891 30.144 34.071 30.36C34.683 31.08 35.511 31.656 36.447 31.908C37.095 32.088 37.671 32.052 38.283 31.728C39.147 31.26 39.903 30.54 40.551 29.856C41.163 29.172 41.631 28.416 42.171 27.696C42.675 27.048 43.287 26.436 43.791 25.788L45.735 23.268L46.851 21.792C47.031 21.576 47.139 21.396 46.995 21.108ZM38.067 21.504C38.103 21.432 38.103 21.396 38.103 21.396C38.643 20.244 39.039 19.02 39.795 17.904L40.443 17.04C40.587 16.86 40.839 16.536 41.091 16.464C41.631 16.356 41.775 17.292 41.739 17.652L41.595 18.408C41.559 18.624 41.631 18.768 41.595 18.948C41.523 19.164 41.343 19.272 41.235 19.452L40.623 20.244C39.795 21.216 38.751 22.044 37.599 22.656C37.779 22.26 37.887 21.864 38.067 21.504ZM59.1467 21.252C58.9307 20.316 58.0667 21.576 57.8867 21.792L55.9067 24.456L53.9627 27.012L52.9187 28.344C52.8107 28.488 52.0187 29.496 52.0907 29.496C52.1627 29.424 52.2707 29.424 52.3787 29.316C51.8387 29.892 49.8587 31.692 49.4987 31.26C49.2107 30.9 50.0027 29.388 50.1107 29.028C50.5067 27.984 50.8667 26.904 51.2987 25.896C51.7667 24.852 52.3067 23.808 52.7387 22.764C53.1707 21.648 52.5227 21.252 51.4787 21C51.0107 20.892 50.4347 20.892 49.8947 20.82C49.8947 20.856 49.9307 20.856 49.9307 20.856C50.3987 20.928 51.0827 20.964 51.6587 21.144C50.7947 20.892 49.7147 21 49.0307 20.82C48.5627 20.712 48.2747 20.712 48.3467 20.172C48.4187 19.452 49.1747 18.696 49.4267 18.012C49.4267 18.048 49.1747 18.696 49.2107 18.696C49.3907 18.768 49.6787 17.76 49.6787 17.616C49.6427 17.436 49.2107 16.896 49.1747 17.112L49.2467 17.22C47.5187 16.032 45.4667 18.48 45.8267 20.244C45.8987 20.496 46.0427 20.64 46.1507 20.928C46.2227 21.144 46.1507 21.396 46.3667 21.684C47.1227 22.62 48.4907 22.656 49.5707 22.44C49.3907 22.692 47.4827 26.724 47.5907 26.76L47.3387 27.66C47.3027 27.624 47.4467 27.336 47.3747 27.336C47.1227 27.3 46.6187 29.388 46.5827 29.568C46.4387 30.432 46.4747 31.188 46.8347 31.98C47.0507 32.484 47.3027 32.916 47.7707 33.204C48.2027 33.492 48.7427 33.636 49.2467 33.528C49.4267 33.456 50.1107 32.988 49.9307 33.024L50.1827 32.916C50.1467 32.952 50.1107 32.988 50.1107 33.024C50.2187 33.06 51.8747 31.728 52.0907 31.584C53.2427 30.612 54.1787 29.424 55.0427 28.236C55.9067 27.012 56.8067 25.788 57.6347 24.564C58.0307 23.988 58.3907 23.412 58.6787 22.8C58.8947 22.368 59.2547 21.756 59.1467 21.252ZM48.3827 25.572C48.6347 24.924 48.9227 24.312 49.2467 23.7C49.3187 23.592 49.8227 22.296 50.0747 22.224C49.8947 22.332 49.1387 24.096 48.9587 24.42L48.2747 26.004C47.9147 26.868 47.5187 27.768 47.2667 28.704C47.5187 27.624 47.9507 26.58 48.3827 25.572ZM47.5187 32.484C47.7347 32.772 48.0227 33.06 48.4187 33.204C48.0947 33.096 47.8067 32.916 47.5907 32.7C47.6267 32.7 47.6267 32.736 47.6267 32.772C47.4107 32.484 47.1227 31.872 47.0867 31.764C46.9787 31.332 46.9427 30.828 46.9787 30.396C46.9787 30.036 47.0147 29.748 47.0867 29.424V29.46C47.0147 29.928 46.9787 30.396 47.0147 30.9V31.08C46.9787 31.044 46.9787 31.008 46.9787 31.008C46.9787 31.008 46.9787 31.044 47.0147 31.116V31.152L47.1587 31.908L47.0507 31.44C47.1227 31.656 47.3027 32.052 47.4827 32.448L47.4467 32.412C47.4467 32.448 47.4827 32.484 47.5187 32.52V32.484ZM48.5267 20.604C48.7067 20.748 49.0307 20.784 49.3547 20.82C49.0667 20.784 48.8147 20.712 48.6347 20.568C48.6347 20.568 48.4187 20.388 48.3827 20.316C48.3827 20.388 48.4547 20.568 48.5267 20.604ZM52.3067 23.412L51.5507 24.996L52.3067 23.376V23.412ZM47.1227 29.316C47.1227 29.352 47.0867 29.388 47.0867 29.424V29.388C47.0867 29.352 47.1227 29.352 47.1227 29.316ZM52.3427 23.304V23.34H52.3067L52.3427 23.304ZM52.3427 23.304V23.34H52.3067L52.3427 23.304ZM47.1587 28.848C47.1587 28.812 47.1947 28.776 47.1947 28.704C47.1947 28.776 47.1587 28.812 47.1587 28.848ZM47.3027 32.16C47.3027 32.16 47.3387 32.196 47.3387 32.232C47.3387 32.196 47.3027 32.196 47.3027 32.16ZM48.4187 20.244C48.3827 20.244 48.3827 20.28 48.3827 20.28L48.4187 20.244ZM71.2756 21.252C71.0596 20.316 70.1956 21.576 70.0156 21.792L68.0356 24.456L66.0916 27.012L65.0476 28.344C64.9396 28.488 64.1476 29.496 64.2196 29.496C64.2916 29.424 64.3996 29.424 64.5076 29.316C63.9676 29.892 61.9876 31.692 61.6276 31.26C61.3396 30.9 62.1316 29.388 62.2396 29.028C62.6356 27.984 62.9956 26.904 63.4276 25.896C63.8956 24.852 64.4356 23.808 64.8676 22.764C65.2996 21.648 64.6516 21.252 63.6076 21C63.1396 20.892 62.5636 20.892 62.0236 20.82C62.0236 20.856 62.0596 20.856 62.0596 20.856C62.5276 20.928 63.2116 20.964 63.7876 21.144C62.9236 20.892 61.8436 21 61.1596 20.82C60.6916 20.712 60.4036 20.712 60.4756 20.172C60.5476 19.452 61.3036 18.696 61.5556 18.012C61.5556 18.048 61.3036 18.696 61.3396 18.696C61.5196 18.768 61.8076 17.76 61.8076 17.616C61.7716 17.436 61.3396 16.896 61.3036 17.112L61.3756 17.22C59.6476 16.032 57.5956 18.48 57.9556 20.244C58.0276 20.496 58.1716 20.64 58.2796 20.928C58.3516 21.144 58.2796 21.396 58.4956 21.684C59.2516 22.62 60.6196 22.656 61.6996 22.44C61.5196 22.692 59.6116 26.724 59.7196 26.76L59.4676 27.66C59.4316 27.624 59.5756 27.336 59.5036 27.336C59.2516 27.3 58.7476 29.388 58.7116 29.568C58.5676 30.432 58.6036 31.188 58.9636 31.98C59.1796 32.484 59.4316 32.916 59.8996 33.204C60.3316 33.492 60.8716 33.636 61.3756 33.528C61.5556 33.456 62.2396 32.988 62.0596 33.024L62.3116 32.916C62.2756 32.952 62.2396 32.988 62.2396 33.024C62.3476 33.06 64.0036 31.728 64.2196 31.584C65.3716 30.612 66.3076 29.424 67.1716 28.236C68.0356 27.012 68.9356 25.788 69.7636 24.564C70.1596 23.988 70.5196 23.412 70.8076 22.8C71.0236 22.368 71.3836 21.756 71.2756 21.252ZM60.5116 25.572C60.7636 24.924 61.0516 24.312 61.3756 23.7C61.4476 23.592 61.9516 22.296 62.2036 22.224C62.0236 22.332 61.2676 24.096 61.0876 24.42L60.4036 26.004C60.0436 26.868 59.6476 27.768 59.3956 28.704C59.6476 27.624 60.0796 26.58 60.5116 25.572ZM59.6476 32.484C59.8636 32.772 60.1516 33.06 60.5476 33.204C60.2236 33.096 59.9356 32.916 59.7196 32.7C59.7556 32.7 59.7556 32.736 59.7556 32.772C59.5396 32.484 59.2516 31.872 59.2156 31.764C59.1076 31.332 59.0716 30.828 59.1076 30.396C59.1076 30.036 59.1436 29.748 59.2156 29.424V29.46C59.1436 29.928 59.1076 30.396 59.1436 30.9V31.08C59.1076 31.044 59.1076 31.008 59.1076 31.008C59.1076 31.008 59.1076 31.044 59.1436 31.116V31.152L59.2876 31.908L59.1796 31.44C59.2516 31.656 59.4316 32.052 59.6116 32.448L59.5756 32.412C59.5756 32.448 59.6116 32.484 59.6476 32.52V32.484ZM60.6556 20.604C60.8356 20.748 61.1596 20.784 61.4836 20.82C61.1956 20.784 60.9436 20.712 60.7636 20.568C60.7636 20.568 60.5476 20.388 60.5116 20.316C60.5116 20.388 60.5836 20.568 60.6556 20.604ZM64.4356 23.412L63.6796 24.996L64.4356 23.376V23.412ZM59.2516 29.316C59.2516 29.352 59.2156 29.388 59.2156 29.424V29.388C59.2156 29.352 59.2516 29.352 59.2516 29.316ZM64.4716 23.304V23.34H64.4356L64.4716 23.304ZM64.4716 23.304V23.34H64.4356L64.4716 23.304ZM59.2876 28.848C59.2876 28.812 59.3236 28.776 59.3236 28.704C59.3236 28.776 59.2876 28.812 59.2876 28.848ZM59.4316 32.16C59.4316 32.16 59.4676 32.196 59.4676 32.232C59.4676 32.196 59.4316 32.196 59.4316 32.16ZM60.5476 20.244C60.5116 20.244 60.5116 20.28 60.5116 20.28L60.5476 20.244ZM86.9685 21.324C86.9325 20.532 86.2845 21.216 86.0685 21.504C85.6005 22.188 85.1685 22.908 84.7365 23.592C83.7645 25.068 82.7925 26.544 81.6765 27.948C77.9685 32.52 80.5605 24.384 80.2725 24.456C80.1285 24.492 80.0205 25.032 79.9845 25.14C80.2725 23.844 80.8125 22.296 81.4965 21.036C81.8925 20.244 82.3605 19.596 81.6405 18.732C80.3085 17.112 78.7605 18.588 77.8965 19.704C77.5365 18.336 76.8165 16.32 75.0525 16.32C74.2605 16.32 73.7925 16.716 73.2525 17.184C72.9285 17.4 72.6765 17.436 72.3885 17.688C71.9205 18.012 71.5965 18.516 71.2725 18.948C70.0485 20.748 69.1845 23.016 68.7885 25.104C68.6085 26.112 68.5365 27.228 68.8245 28.236C69.0045 28.812 69.6525 30.108 70.4805 30C70.5165 30 70.4445 29.964 70.3365 29.892C70.8405 30.036 71.4165 29.964 71.8485 29.676C71.8845 29.748 71.4525 29.928 71.4525 29.928C71.8485 30.54 74.8005 26.976 75.0165 26.652C75.4845 26.004 75.8085 25.32 76.2405 24.636C76.5645 24.132 77.0685 23.484 77.4285 22.944C77.3925 23.196 77.3925 23.52 77.3925 23.52C76.7445 25.572 76.1325 27.804 76.9965 29.928C77.3925 31.008 78.3645 32.016 79.5885 31.8C80.6685 31.62 81.5685 30.576 82.2165 29.748C83.0085 28.812 83.6925 27.768 84.3765 26.688C84.9525 25.716 85.4925 24.744 85.9605 23.664C86.2485 22.98 87.0405 22.152 86.9685 21.324ZM76.6365 21.576C76.4565 21.828 76.2765 22.08 76.1325 22.332L75.1965 23.664C74.5845 24.564 73.9365 25.428 73.2525 26.256C73.0725 26.508 72.2085 27.624 71.8485 27.516C71.3085 27.336 71.8845 25.464 71.9565 25.176C72.0645 24.672 73.9725 19.128 74.4765 19.02C73.8285 18.984 71.7405 25.5 71.6325 26.04C71.9205 24.276 72.5685 22.548 73.2885 20.928C73.6845 20.1 74.5845 17.904 75.7725 17.904C76.4205 17.904 76.5645 19.236 76.6725 19.668C76.6365 19.596 76.3125 18.552 76.2765 18.588C76.0965 18.732 76.8165 20.712 76.8165 21C76.8165 21.288 76.8165 21.288 76.6365 21.576ZM77.4645 23.34C77.4645 23.34 77.5725 22.836 77.6085 22.728L77.7885 22.476L77.4645 23.34ZM76.9245 21.108V20.748C77.0325 20.892 77.0325 21 76.9245 21.108ZM100.57 12.756C100.57 12.72 100.534 12.648 100.534 12.612C100.534 12.648 100.57 12.72 100.57 12.756L100.462 10.452C100.462 10.488 100.498 10.488 100.498 10.488C100.462 10.272 100.462 10.056 100.462 9.84C100.426 9.768 100.426 9.732 100.426 9.66C100.426 9.696 100.462 9.732 100.462 9.768C100.462 9.696 100.426 9.696 100.426 9.624V9.66V9.588V9.624V9.552V9.588V9.192C100.354 7.608 100.282 6.384 100.282 6.384C100.282 6.384 100.318 7.248 100.354 8.256C100.282 7.032 100.138 5.772 99.9581 4.548C99.9941 4.692 100.03 4.836 100.102 4.8C100.246 4.764 99.9581 3.252 99.8501 3.288C99.8141 3.36 99.7781 3.432 99.7781 3.468C99.6701 3.072 99.6701 2.784 99.0941 2.856C98.3741 2.892 97.6541 3.36 97.0781 3.756C96.6461 4.08 95.9621 4.548 95.8541 5.124C95.7821 5.448 95.9621 5.628 95.9621 5.88C95.9621 6.096 95.8541 6.384 95.8901 6.672C95.9261 7.032 95.9981 7.428 96.0701 7.788C96.1781 8.472 96.3221 9.156 96.3581 9.876C96.3941 10.164 96.7901 14.016 96.7541 14.124C96.7901 14.088 96.7901 14.016 96.8261 13.944C96.8261 14.268 96.8261 14.628 96.8621 14.952C96.7901 14.952 96.8261 14.664 96.7541 14.7C96.3941 14.772 96.6461 18.084 96.6821 18.48C96.7541 19.236 96.6821 19.956 96.6101 20.712C96.6101 21.036 96.5381 21.36 96.5741 21.684C96.5741 21.72 96.6101 22.476 96.7181 22.152C96.7181 22.26 96.6821 22.332 96.6821 22.404C96.6821 22.368 96.6461 22.332 96.6461 22.296C96.5741 22.332 96.6101 23.16 96.6101 23.16C96.5741 23.52 96.4661 23.736 96.3581 24.096C96.0701 25.104 95.9621 26.22 95.8181 27.264C95.6381 28.38 95.4581 29.496 95.0981 30.576C94.9181 31.044 94.4141 31.728 94.4141 32.232C94.3781 33.744 97.5101 33.096 98.0501 32.376C98.9501 31.188 99.1661 29.46 99.8501 28.128C100.858 26.184 102.01 24.348 103.09 22.476C103.306 22.08 103.45 21.576 103.63 21.216C103.954 20.496 104.53 19.848 104.962 19.2C106.978 16.212 109.066 13.368 111.442 10.632C112.126 9.84 112.918 9.156 113.674 8.436C113.998 8.112 114.394 7.86 114.682 7.536C114.97 7.248 115.006 6.96 115.294 6.708C115.906 6.168 118.354 5.736 117.886 4.44C117.706 3.972 116.986 3.216 116.41 3.396C116.086 3.504 116.194 3.612 115.978 3.792C115.15 4.512 114.214 5.124 113.422 5.916C111.622 7.68 110.074 9.624 108.526 11.604C106.726 13.98 104.782 16.32 103.378 18.948C102.442 20.748 101.182 22.368 100.246 24.168C100.246 24.132 100.354 23.376 100.21 23.448C100.138 23.52 100.102 23.628 100.066 23.736C100.354 21.54 100.93 19.236 100.786 16.86L100.57 12.756ZM97.6541 20.964C97.4381 23.34 97.2941 25.68 96.7541 28.02C96.5741 28.776 96.3581 29.46 96.1061 30.108C96.1781 29.856 96.2861 29.532 96.3581 29.208C96.6101 27.948 96.8621 26.688 97.0421 25.428C97.4741 22.296 97.7261 19.2 97.6901 16.068C97.7261 17.652 97.7621 19.308 97.6541 20.856V20.964ZM121.245 21.108C121.245 21.144 121.245 21.144 121.209 21.108V21.072C120.633 20.1 119.877 21.432 119.553 21.9C118.941 22.728 118.365 23.52 117.717 24.276C117.177 24.924 116.601 25.572 116.169 26.256C116.169 26.328 116.097 26.508 116.097 26.508C115.953 26.724 115.737 26.904 115.557 27.12C115.233 27.444 114.909 27.804 114.549 28.128C114.009 28.632 110.985 31.476 110.589 29.64C110.373 28.74 110.661 27.624 110.841 26.76C110.949 26.292 111.057 25.86 111.129 25.392C111.201 25.032 111.093 24.672 111.273 24.312C111.381 24.096 111.417 24.132 111.669 24.06L112.281 23.844C112.677 23.7 113.073 23.556 113.433 23.34C113.973 23.016 114.477 22.62 114.945 22.224C116.061 21.288 117.249 20.172 117.717 18.768C117.969 17.976 118.005 17.112 117.501 16.428C117.033 15.816 116.241 15.492 115.521 15.348C113.577 14.988 112.101 16.104 110.985 17.58C109.617 19.272 108.645 21.36 108.177 23.484C107.925 24.528 107.781 25.572 107.601 26.652C107.421 27.732 107.313 28.74 107.889 29.748C107.853 29.388 107.781 29.064 107.781 28.74C107.781 28.56 107.853 28.38 107.853 28.236C107.853 28.164 107.781 27.948 107.781 27.84C107.781 27.516 107.853 27.264 107.925 26.94C107.961 26.616 107.925 26.292 107.961 25.968C107.997 25.608 108.141 25.32 108.285 24.996C108.393 24.708 108.429 24.456 108.537 24.168C108.645 23.916 108.717 23.628 108.825 23.34C108.861 23.16 109.041 22.944 109.149 22.728C109.041 23.052 108.825 23.34 108.753 23.628C108.645 24.06 108.717 24.528 108.681 24.96C108.609 25.428 108.465 25.896 108.393 26.4C108.321 26.868 108.105 27.3 108.033 27.768C107.961 28.2 107.817 28.524 107.853 28.956C107.853 29.208 107.889 29.46 107.925 29.676C107.961 29.964 108.141 30.144 108.321 30.36C108.933 31.08 109.761 31.656 110.697 31.908C111.345 32.088 111.921 32.052 112.533 31.728C113.397 31.26 114.153 30.54 114.801 29.856C115.413 29.172 115.881 28.416 116.421 27.696C116.925 27.048 117.537 26.436 118.041 25.788L119.985 23.268L121.101 21.792C121.281 21.576 121.389 21.396 121.245 21.108ZM112.317 21.504C112.353 21.432 112.353 21.396 112.353 21.396C112.893 20.244 113.289 19.02 114.045 17.904L114.693 17.04C114.837 16.86 115.089 16.536 115.341 16.464C115.881 16.356 116.025 17.292 115.989 17.652L115.845 18.408C115.809 18.624 115.881 18.768 115.845 18.948C115.773 19.164 115.593 19.272 115.485 19.452L114.873 20.244C114.045 21.216 113.001 22.044 111.849 22.656C112.029 22.26 112.137 21.864 112.317 21.504ZM133.397 21.252C133.181 20.316 132.317 21.576 132.137 21.792L130.157 24.456L128.213 27.012L127.169 28.344C127.061 28.488 126.269 29.496 126.341 29.496C126.413 29.424 126.521 29.424 126.629 29.316C126.089 29.892 124.109 31.692 123.749 31.26C123.461 30.9 124.253 29.388 124.361 29.028C124.757 27.984 125.117 26.904 125.549 25.896C126.017 24.852 126.557 23.808 126.989 22.764C127.421 21.648 126.773 21.252 125.729 21C125.261 20.892 124.685 20.892 124.145 20.82C124.145 20.856 124.181 20.856 124.181 20.856C124.649 20.928 125.333 20.964 125.909 21.144C125.045 20.892 123.965 21 123.281 20.82C122.813 20.712 122.525 20.712 122.597 20.172C122.669 19.452 123.425 18.696 123.677 18.012C123.677 18.048 123.425 18.696 123.461 18.696C123.641 18.768 123.929 17.76 123.929 17.616C123.893 17.436 123.461 16.896 123.425 17.112L123.497 17.22C121.769 16.032 119.717 18.48 120.077 20.244C120.149 20.496 120.293 20.64 120.401 20.928C120.473 21.144 120.401 21.396 120.617 21.684C121.373 22.62 122.741 22.656 123.821 22.44C123.641 22.692 121.733 26.724 121.841 26.76L121.589 27.66C121.553 27.624 121.697 27.336 121.625 27.336C121.373 27.3 120.869 29.388 120.833 29.568C120.689 30.432 120.725 31.188 121.085 31.98C121.301 32.484 121.553 32.916 122.021 33.204C122.453 33.492 122.993 33.636 123.497 33.528C123.677 33.456 124.361 32.988 124.181 33.024L124.433 32.916C124.397 32.952 124.361 32.988 124.361 33.024C124.469 33.06 126.125 31.728 126.341 31.584C127.493 30.612 128.429 29.424 129.293 28.236C130.157 27.012 131.057 25.788 131.885 24.564C132.281 23.988 132.641 23.412 132.929 22.8C133.145 22.368 133.505 21.756 133.397 21.252ZM122.633 25.572C122.885 24.924 123.173 24.312 123.497 23.7C123.569 23.592 124.073 22.296 124.325 22.224C124.145 22.332 123.389 24.096 123.209 24.42L122.525 26.004C122.165 26.868 121.769 27.768 121.517 28.704C121.769 27.624 122.201 26.58 122.633 25.572ZM121.769 32.484C121.985 32.772 122.273 33.06 122.669 33.204C122.345 33.096 122.057 32.916 121.841 32.7C121.877 32.7 121.877 32.736 121.877 32.772C121.661 32.484 121.373 31.872 121.337 31.764C121.229 31.332 121.193 30.828 121.229 30.396C121.229 30.036 121.265 29.748 121.337 29.424V29.46C121.265 29.928 121.229 30.396 121.265 30.9V31.08C121.229 31.044 121.229 31.008 121.229 31.008C121.229 31.008 121.229 31.044 121.265 31.116V31.152L121.409 31.908L121.301 31.44C121.373 31.656 121.553 32.052 121.733 32.448L121.697 32.412C121.697 32.448 121.733 32.484 121.769 32.52V32.484ZM122.777 20.604C122.957 20.748 123.281 20.784 123.605 20.82C123.317 20.784 123.065 20.712 122.885 20.568C122.885 20.568 122.669 20.388 122.633 20.316C122.633 20.388 122.705 20.568 122.777 20.604ZM126.557 23.412L125.801 24.996L126.557 23.376V23.412ZM121.373 29.316C121.373 29.352 121.337 29.388 121.337 29.424V29.388C121.337 29.352 121.373 29.352 121.373 29.316ZM126.593 23.304V23.34H126.557L126.593 23.304ZM126.593 23.304V23.34H126.557L126.593 23.304ZM121.409 28.848C121.409 28.812 121.445 28.776 121.445 28.704C121.445 28.776 121.409 28.812 121.409 28.848ZM121.553 32.16C121.553 32.16 121.589 32.196 121.589 32.232C121.589 32.196 121.553 32.196 121.553 32.16ZM122.669 20.244C122.633 20.244 122.633 20.28 122.633 20.28L122.669 20.244ZM152.042 21.216V21.18C151.826 19.992 150.206 21.972 149.99 22.152C148.946 23.304 147.974 24.564 147.038 25.824C146.102 27.12 145.202 28.416 144.23 29.712C143.762 30.36 143.294 30.972 142.754 31.548C142.574 31.764 142.142 32.376 141.818 32.376C140.558 32.376 141.53 27.3 141.674 26.508C141.89 25.104 141.998 23.232 142.898 22.116C143.114 21.828 145.562 18.696 145.562 18.696C145.49 18.66 145.202 19.02 145.022 19.236L146.57 17.148L146.678 17.004H146.714H146.678L146.966 16.608C147.002 16.644 146.966 16.716 146.93 16.788L147.254 16.428L148.19 15.204C148.874 14.232 149.522 13.188 150.134 12.18C151.106 10.524 152.438 8.148 151.718 6.132C151.178 4.656 149.198 4.368 147.866 4.872C146.894 5.232 146.066 5.988 145.382 6.78C145.022 7.248 144.662 7.752 144.338 8.292C144.23 8.436 143.762 9.588 143.654 9.732H143.69C143.474 10.128 143.258 10.524 143.114 10.92C143.186 10.632 143.366 10.056 143.51 9.948C143.222 10.164 142.97 11.208 142.898 11.316C141.53 14.304 140.342 17.328 139.478 20.496C138.506 19.38 136.958 17.472 135.266 18.156C133.862 18.732 132.818 20.208 132.098 21.504C131.45 22.656 131.27 23.844 130.802 24.96C129.974 26.868 129.578 30.792 132.386 31.368C133.25 31.548 134.042 31.008 134.726 30.54C135.95 29.64 137.102 28.596 138.182 27.516C138.002 29.424 137.606 32.304 139.154 33.816C141.062 35.76 142.97 33.132 144.122 31.692C145.598 29.82 146.75 27.732 148.226 25.932C148.946 25.068 149.666 24.204 150.422 23.412C150.998 22.836 152.15 22.116 152.042 21.216ZM138.794 23.592C138.758 23.7 138.758 23.772 138.758 23.772C138.614 24.636 138.614 25.392 138.002 26.004C137.462 26.58 136.886 27.12 136.31 27.66C135.77 28.164 134.474 29.64 133.646 29.568C132.638 29.46 133.394 27.156 133.898 25.752C133.358 27.192 132.494 29.532 133.682 29.604C134.006 29.64 134.546 29.352 135.014 28.956C134.582 29.352 133.862 29.892 133.43 29.676C132.602 29.316 133.322 27.264 133.466 26.688C133.934 25.032 134.618 23.448 135.41 21.936C135.806 21.18 136.382 19.956 137.138 19.884L136.958 19.992C136.994 19.956 137.03 19.956 137.066 19.956C137.318 19.884 137.57 20.064 137.75 20.208C138.218 20.532 138.506 21.144 138.83 21.612C139.19 22.188 138.938 22.8 138.794 23.448V23.592ZM144.59 15.276C144.59 15.24 144.59 15.168 144.626 15.132V15.096C144.662 14.988 144.698 14.952 144.698 14.952V14.916C145.526 12.612 146.426 10.308 147.722 8.22C148.046 7.68 148.982 6.024 149.81 6.492C150.134 6.672 150.206 7.14 150.206 7.464C150.35 9.624 148.622 12.18 147.542 13.908C146.282 15.924 144.878 17.904 143.402 19.74L144.194 18.912L144.914 18.012L143.078 20.388L142.826 20.712L142.682 20.856C142.718 20.64 142.898 20.424 143.078 20.172C143.006 20.244 142.934 20.316 142.898 20.388C143.366 18.84 143.87 17.292 144.41 15.744C144.374 15.78 144.41 15.708 144.446 15.564L144.554 15.384C144.554 15.348 144.554 15.312 144.59 15.276ZM141.566 18.228C141.494 18.408 141.278 19.236 141.17 19.344C141.17 19.38 141.134 19.416 141.098 19.416C141.386 19.056 141.206 18.588 141.35 18.156C141.422 17.94 141.782 17.544 141.854 17.256C141.854 17.544 141.674 18.048 141.566 18.228ZM135.842 28.2C136.742 27.408 137.606 26.58 138.434 25.716C138.362 26.184 137.246 26.976 136.85 27.336C136.382 27.804 135.842 28.272 135.302 28.704H135.266L135.842 28.2ZM142.214 14.952C142.07 15.384 141.89 15.78 141.674 16.176C141.854 15.636 141.962 15.096 142.214 14.592C142.43 14.196 142.682 13.692 142.862 13.224C142.682 13.8 142.394 14.412 142.214 14.952ZM144.554 15.384L144.41 15.744C144.41 15.708 144.446 15.636 144.446 15.564L144.554 15.384ZM136.778 20.136C136.634 20.244 136.526 20.388 136.49 20.388C136.562 20.388 136.67 20.244 136.778 20.136ZM137.786 20.064C137.858 20.1 137.93 20.136 138.002 20.208L137.786 20.064ZM144.914 19.416C144.914 19.38 144.95 19.344 144.986 19.308C144.95 19.38 144.914 19.416 144.914 19.416ZM144.986 19.308L145.022 19.236C145.022 19.272 144.986 19.308 144.986 19.308ZM163.186 21.108C163.186 21.144 163.186 21.144 163.15 21.108V21.072C162.574 20.1 161.818 21.432 161.494 21.9C160.882 22.728 160.306 23.52 159.658 24.276C159.118 24.924 158.542 25.572 158.11 26.256C158.11 26.328 158.038 26.508 158.038 26.508C157.894 26.724 157.678 26.904 157.498 27.12C157.174 27.444 156.85 27.804 156.49 28.128C155.95 28.632 152.926 31.476 152.53 29.64C152.314 28.74 152.602 27.624 152.782 26.76C152.89 26.292 152.998 25.86 153.07 25.392C153.142 25.032 153.034 24.672 153.214 24.312C153.322 24.096 153.358 24.132 153.61 24.06L154.222 23.844C154.618 23.7 155.014 23.556 155.374 23.34C155.914 23.016 156.418 22.62 156.886 22.224C158.002 21.288 159.19 20.172 159.658 18.768C159.91 17.976 159.946 17.112 159.442 16.428C158.974 15.816 158.182 15.492 157.462 15.348C155.518 14.988 154.042 16.104 152.926 17.58C151.558 19.272 150.586 21.36 150.118 23.484C149.866 24.528 149.722 25.572 149.542 26.652C149.362 27.732 149.254 28.74 149.83 29.748C149.794 29.388 149.722 29.064 149.722 28.74C149.722 28.56 149.794 28.38 149.794 28.236C149.794 28.164 149.722 27.948 149.722 27.84C149.722 27.516 149.794 27.264 149.866 26.94C149.902 26.616 149.866 26.292 149.902 25.968C149.938 25.608 150.082 25.32 150.226 24.996C150.334 24.708 150.37 24.456 150.478 24.168C150.586 23.916 150.658 23.628 150.766 23.34C150.802 23.16 150.982 22.944 151.09 22.728C150.982 23.052 150.766 23.34 150.694 23.628C150.586 24.06 150.658 24.528 150.622 24.96C150.55 25.428 150.406 25.896 150.334 26.4C150.262 26.868 150.046 27.3 149.974 27.768C149.902 28.2 149.758 28.524 149.794 28.956C149.794 29.208 149.83 29.46 149.866 29.676C149.902 29.964 150.082 30.144 150.262 30.36C150.874 31.08 151.702 31.656 152.638 31.908C153.286 32.088 153.862 32.052 154.474 31.728C155.338 31.26 156.094 30.54 156.742 29.856C157.354 29.172 157.822 28.416 158.362 27.696C158.866 27.048 159.478 26.436 159.982 25.788L161.926 23.268L163.042 21.792C163.222 21.576 163.33 21.396 163.186 21.108ZM154.258 21.504C154.294 21.432 154.294 21.396 154.294 21.396C154.834 20.244 155.23 19.02 155.986 17.904L156.634 17.04C156.778 16.86 157.03 16.536 157.282 16.464C157.822 16.356 157.966 17.292 157.93 17.652L157.786 18.408C157.75 18.624 157.822 18.768 157.786 18.948C157.714 19.164 157.534 19.272 157.426 19.452L156.814 20.244C155.986 21.216 154.942 22.044 153.79 22.656C153.97 22.26 154.078 21.864 154.258 21.504Z" fill="#237D37"/>
</g>
<defs>
<filter id="filter0_d" x="0.421455" y="0.71582" width="166.832" height="44.791" filterUnits="userSpaceOnUse" color-interpolation-filters="sRGB">
<feFlood flood-opacity="0" result="BackgroundImageFix"/>
<feColorMatrix in="SourceAlpha" type="matrix" values="0 0 0 0 0 0 0 0 0 0 0 0 0 0 0 0 0 0 127 0"/>
<feOffset dx="-2" dy="5"/>
<feGaussianBlur stdDeviation="3"/>
<feColorMatrix type="matrix" values="0 0 0 0 0 0 0 0 0 0 0 0 0 0 0 0 0 0 0.25 0"/>
<feBlend mode="normal" in2="BackgroundImageFix" result="effect1_dropShadow"/>
<feBlend mode="normal" in="SourceGraphic" in2="effect1_dropShadow" result="shape"/>
</filter>
</defs>
</svg>
