<svg width="657" height="248.12" viewBox="0 0 620 132" fill="none" xmlns="http://www.w3.org/2000/svg">
<path d="M86.5875 7.16958C84.5715 5.44158 82.1235 4.28959 79.5315 3.28158C73.0515 0.545584 66.8595 -0.606419 59.9475 1.12158C53.3235 2.84959 46.9875 6.30559 41.9475 10.9136C38.4915 14.0816 32.4435 19.4096 31.7235 24.4496L32.7315 23.0096C31.2915 25.7456 30.2835 28.4816 29.7075 31.0736C29.5635 31.0736 29.9955 28.7696 30.1395 28.7696C27.8355 28.7696 28.5555 37.5536 28.6995 38.8496C28.9875 44.7536 30.5715 50.8016 32.8755 56.2736C36.0435 63.7616 39.4995 71.1056 42.3795 78.5936L44.9715 85.0736C45.2595 86.0816 45.6915 87.2336 46.1235 88.2416C46.2675 88.2416 46.8435 89.3936 46.8435 89.2496C46.9875 90.4016 47.2755 91.2656 47.5635 92.2736C47.2755 91.5536 46.6995 90.5456 46.6995 89.9696C46.4115 90.9776 47.2755 92.2736 47.5635 92.9936C47.8515 94.4336 47.9955 95.7296 47.9955 97.1696C47.7075 100.914 46.4115 104.514 44.5395 107.682C40.7955 113.874 34.6035 118.914 27.6915 121.074C22.6515 122.514 16.4595 122.514 14.1555 117.042C12.1395 112.578 13.0035 107.106 14.0115 102.498C14.5875 99.9056 15.3075 97.3136 16.4595 94.8656C17.3235 92.5616 21.9315 86.3696 20.6355 84.0656C17.4675 78.4496 6.8115 92.5616 5.3715 94.8656C-0.6765 104.658 -3.5565 120.642 8.8275 126.978C17.4675 131.298 28.8435 130.578 37.4835 127.122C40.5075 125.97 53.6115 120.498 53.4675 116.178L50.5875 118.194C60.5235 109.554 64.5555 99.0416 60.6675 86.0816C58.7955 80.0336 55.3395 75.1376 52.0275 69.8096C49.5795 65.4896 48.8595 61.3136 46.8435 56.8496C49.5795 62.3216 52.8915 67.6496 55.7715 73.1216C49.8675 59.5856 38.4915 43.4576 46.1235 28.3376C49.5795 21.5696 55.7715 15.9536 62.5395 12.6416C66.4275 10.7696 71.0355 9.18558 75.4995 9.32958C80.8275 9.76159 79.6755 13.2176 79.6755 16.8176C79.9635 14.6576 81.2595 12.3536 79.0995 10.1936C77.0835 8.46558 73.7715 9.04159 71.3235 9.47358C65.7075 10.4816 60.5235 12.7856 56.0595 16.0976C59.2275 13.6496 62.8275 11.6336 66.5715 10.3376C69.8835 9.18558 74.7795 7.74559 78.0915 9.18558C86.2995 12.9296 75.7875 28.6256 71.8995 33.9536C72.6195 32.6576 73.7715 30.2096 74.0595 29.9216C72.0435 29.7776 68.0115 39.8576 67.0035 40.4336C63.5475 44.0336 67.7235 44.4656 70.6035 42.7376C73.7715 40.8656 76.3635 37.8416 78.8115 35.3936C82.1235 31.9376 85.1475 28.3376 87.7395 24.4496C89.4675 21.8576 92.6355 17.6816 90.9075 14.5136C89.7555 11.7776 89.0355 9.18558 86.5875 7.16958ZM6.0915 123.81C-1.3965 114.45 2.0595 102.066 8.8275 92.8496C2.9235 101.346 0.4755 116.754 6.0915 123.81ZM43.2435 40.0016C43.3875 40.7216 43.2435 41.4416 43.2435 42.0176V40.0016ZM109.775 78.0176C109.487 76.1456 107.471 76.7216 106.463 77.4416C105.167 78.3056 97.9669 87.8096 98.5429 88.5296C98.9749 88.5296 99.2629 88.5296 99.5509 88.2416C97.5349 90.6896 93.7909 93.4256 91.0549 95.5856C89.4709 96.8816 85.5829 100.482 83.2789 99.3296C78.3829 96.8816 88.3189 79.6016 87.8869 79.4576C87.4549 79.3136 83.8549 87.3776 83.1349 89.2496C84.8629 84.2096 87.1669 79.1696 89.9029 74.7056C89.7589 75.1376 89.3269 75.8576 89.6149 75.8576C89.9029 76.0016 92.0629 72.9776 91.6309 72.6896C91.4869 72.6896 91.1989 72.6896 91.0549 72.8336C91.4869 72.4016 92.2069 72.2576 92.2069 71.3936C92.2069 69.9536 88.8949 68.5136 87.7429 68.0816C85.0069 66.9296 82.2709 66.6416 80.1109 68.0816C77.2309 69.8096 76.6549 73.2656 75.5029 76.2896C75.2149 77.1536 72.4789 87.3776 73.0549 87.5216C73.3429 87.3776 73.3429 87.2336 73.4869 86.9456L73.0549 89.5376C72.9109 89.5376 73.1989 88.8176 72.9109 88.8176C71.7589 88.8176 72.0469 94.0016 72.1909 94.7216C72.7669 97.3136 74.7829 99.1856 76.3669 101.346C77.2309 102.642 78.0949 103.938 79.3909 104.802C81.1189 106.098 79.9669 104.802 81.1189 105.378H80.8309C80.6869 106.242 86.1589 107.682 87.3109 107.538C92.3509 106.386 95.9509 100.194 98.8309 96.3056C101.567 92.8496 103.871 89.3936 106.319 85.7936C107.759 83.9216 110.351 80.7536 109.775 78.0176ZM84.5749 59.8736C84.8629 60.3056 84.4309 60.8816 85.4389 61.4576C86.4469 61.8896 87.0229 61.3136 87.8869 61.0256C89.6149 60.3056 90.9109 58.4336 92.2069 57.2816C92.6389 56.9936 91.7749 57.1376 91.7749 57.1376C93.6469 55.4096 92.0629 57.4256 93.7909 56.4176C95.5189 55.2656 95.8069 53.3936 97.2469 51.8096C95.5189 52.5296 94.2229 53.5376 93.0709 54.9776C91.6309 56.8496 90.6229 57.7136 89.0389 58.7216C90.7669 57.4256 91.6309 56.1296 93.0709 53.8256C93.5029 53.3936 93.9349 53.1056 94.5109 52.8176C94.0789 52.3856 94.0789 51.9536 94.6549 51.5216C95.0869 50.8016 95.9509 50.5136 96.3829 49.7936C97.1029 48.7856 96.9589 47.4896 97.8229 46.4816C98.5429 45.9056 99.5509 45.4736 100.127 44.8976C101.423 43.7456 102.863 41.5856 102.287 39.7136C101.711 37.9856 100.271 35.8256 98.6869 34.8176C96.8149 33.8096 94.2229 33.3776 92.2069 34.2416C91.7749 34.3856 90.0469 34.8176 90.6229 35.3936C90.7669 35.6816 90.9109 35.6816 91.1989 35.6816C89.9029 36.6896 87.7429 38.4176 90.7669 39.5696C90.4789 39.8576 90.7669 41.1536 90.7669 41.2976C90.6229 42.3056 88.6069 47.6336 87.3109 50.2256L89.0389 47.6336C88.0309 49.7936 86.8789 51.8096 85.5829 53.5376C86.4469 51.6656 84.7189 53.8256 84.7189 54.2576C83.1349 53.5376 83.5669 58.0016 83.7109 58.4336C83.7109 58.5776 84.5749 59.8736 84.5749 59.8736ZM81.8389 94.1456V94.2896L81.5509 95.1536L81.8389 94.0016C81.9829 93.8576 81.9829 93.8576 81.8389 94.1456ZM86.5909 51.3776C86.5909 51.3776 86.8789 51.0896 87.1669 50.5136L86.5909 51.3776ZM85.1509 54.1136C85.1509 54.2576 85.1509 54.2576 85.0069 54.4016C85.0069 54.4016 85.0069 54.2576 84.8629 54.2576C85.0069 54.2576 85.0069 54.2576 85.1509 54.1136ZM154.48 77.8736C154.48 78.0176 154.48 78.0176 154.336 77.8736V77.7296C152.032 73.8416 149.008 79.1696 147.712 81.0416C145.264 84.3536 142.96 87.5216 140.368 90.5456C138.208 93.1376 135.904 95.7296 134.176 98.4656C134.176 98.7536 133.888 99.4736 133.888 99.4736C133.312 100.338 132.448 101.058 131.728 101.922C130.432 103.218 129.136 104.658 127.696 105.954C125.536 107.97 113.44 119.346 111.856 112.002C110.992 108.402 112.144 103.938 112.864 100.482C113.296 98.6096 113.728 96.8816 114.016 95.0096C114.304 93.5696 113.872 92.1296 114.592 90.6896C115.024 89.8256 115.168 89.9696 116.176 89.6816L118.624 88.8176C120.208 88.2416 121.792 87.6656 123.232 86.8016C125.392 85.5056 127.408 83.9216 129.28 82.3376C133.744 78.5936 138.496 74.1296 140.368 68.5136C141.376 65.3456 141.52 61.8896 139.504 59.1536C137.632 56.7056 134.464 55.4096 131.584 54.8336C123.808 53.3936 117.904 57.8576 113.44 63.7616C107.968 70.5296 104.08 78.8816 102.208 87.3776C101.2 91.5536 100.624 95.7296 99.9041 100.05C99.1841 104.37 98.7521 108.402 101.056 112.434C100.912 110.994 100.624 109.698 100.624 108.402C100.624 107.682 100.912 106.962 100.912 106.386C100.912 106.098 100.624 105.234 100.624 104.802C100.624 103.506 100.912 102.498 101.2 101.202C101.344 99.9056 101.2 98.6096 101.344 97.3136C101.488 95.8736 102.064 94.7216 102.64 93.4256C103.072 92.2736 103.216 91.2656 103.648 90.1136C104.08 89.1056 104.368 87.9536 104.8 86.8016C104.944 86.0816 105.664 85.2176 106.096 84.3536C105.664 85.6496 104.8 86.8016 104.512 87.9536C104.08 89.6816 104.368 91.5536 104.224 93.2816C103.936 95.1536 103.36 97.0256 103.072 99.0416C102.784 100.914 101.92 102.642 101.632 104.514C101.344 106.242 100.768 107.538 100.912 109.266C100.912 110.274 101.056 111.282 101.2 112.146C101.344 113.298 102.064 114.018 102.784 114.882C105.232 117.762 108.544 120.066 112.288 121.074C114.88 121.794 117.184 121.65 119.632 120.354C123.088 118.482 126.112 115.602 128.704 112.866C131.152 110.13 133.024 107.106 135.184 104.226C137.2 101.634 139.648 99.1856 141.664 96.5936L149.44 86.5136L153.904 80.6096C154.624 79.7456 155.056 79.0256 154.48 77.8736ZM118.768 79.4576C118.912 79.1696 118.912 79.0256 118.912 79.0256C121.072 74.4176 122.656 69.5216 125.68 65.0576L128.272 61.6016C128.848 60.8816 129.856 59.5856 130.864 59.2976C133.024 58.8656 133.6 62.6096 133.456 64.0496L132.88 67.0736C132.736 67.9376 133.024 68.5136 132.88 69.2336C132.592 70.0976 131.872 70.5296 131.44 71.2496L128.992 74.4176C125.68 78.3056 121.504 81.6176 116.896 84.0656C117.616 82.4816 118.048 80.8976 118.768 79.4576ZM203.087 78.4496C202.223 74.7056 198.767 79.7456 198.047 80.6096L190.127 91.2656L182.351 101.49L178.175 106.818C177.743 107.394 174.575 111.426 174.863 111.426C175.151 111.138 175.583 111.138 176.015 110.706C173.855 113.01 165.935 120.21 164.495 118.482C163.343 117.042 166.511 110.994 166.943 109.554C168.527 105.378 169.967 101.058 171.695 97.0256C173.567 92.8496 175.727 88.6736 177.455 84.4976C179.183 80.0336 176.591 78.4496 172.415 77.4416C170.543 77.0096 168.239 77.0096 166.079 76.7216C166.079 76.8656 166.223 76.8656 166.223 76.8656C168.095 77.1536 170.831 77.2976 173.135 78.0176C169.679 77.0096 165.359 77.4416 162.623 76.7216C160.751 76.2896 159.599 76.2896 159.887 74.1296C160.175 71.2496 163.199 68.2256 164.207 65.4896C164.207 65.6336 163.199 68.2256 163.343 68.2256C164.063 68.5136 165.215 64.4816 165.215 63.9056C165.071 63.1856 163.343 61.0256 163.199 61.8896L163.487 62.3216C156.575 57.5696 148.367 67.3616 149.807 74.4176C150.095 75.4256 150.671 76.0016 151.103 77.1536C151.391 78.0176 151.103 79.0256 151.967 80.1776C154.991 83.9216 160.463 84.0656 164.783 83.2016C164.063 84.2096 156.431 100.338 156.863 100.482L155.855 104.082C155.711 103.938 156.287 102.786 155.999 102.786C154.991 102.642 152.975 110.994 152.831 111.714C152.255 115.17 152.399 118.194 153.839 121.362C154.703 123.378 155.711 125.106 157.583 126.258C159.311 127.41 161.471 127.986 163.487 127.554C164.207 127.266 166.943 125.394 166.223 125.538L167.231 125.106C167.087 125.25 166.943 125.394 166.943 125.538C167.375 125.682 173.999 120.354 174.863 119.778C179.471 115.89 183.215 111.138 186.671 106.386C190.127 101.49 193.727 96.5936 197.039 91.6976C198.623 89.3936 200.063 87.0896 201.215 84.6416C202.079 82.9136 203.519 80.4656 203.087 78.4496ZM160.031 95.7296C161.039 93.1376 162.191 90.6896 163.487 88.2416C163.775 87.8096 165.791 82.6256 166.799 82.3376C166.079 82.7696 163.055 89.8256 162.335 91.1216L159.599 97.4576C158.159 100.914 156.575 104.514 155.567 108.258C156.575 103.938 158.303 99.7616 160.031 95.7296ZM156.575 123.378C157.439 124.53 158.591 125.682 160.175 126.258C158.879 125.826 157.727 125.106 156.863 124.242C157.007 124.242 157.007 124.386 157.007 124.53C156.143 123.378 154.991 120.93 154.847 120.498C154.415 118.77 154.271 116.754 154.415 115.026C154.415 113.586 154.559 112.434 154.847 111.138V111.282C154.559 113.154 154.415 115.026 154.559 117.042V117.762C154.415 117.618 154.415 117.474 154.415 117.474C154.415 117.474 154.415 117.618 154.559 117.906V118.05L155.135 121.074L154.703 119.202C154.991 120.066 155.711 121.65 156.431 123.234L156.287 123.09C156.287 123.234 156.431 123.378 156.575 123.522V123.378ZM160.607 75.8576C161.327 76.4336 162.623 76.5776 163.919 76.7216C162.767 76.5776 161.759 76.2896 161.039 75.7136C161.039 75.7136 160.175 74.9936 160.031 74.7056C160.031 74.9936 160.319 75.7136 160.607 75.8576ZM175.727 87.0896L172.703 93.4256L175.727 86.9456V87.0896ZM154.991 110.706C154.991 110.85 154.847 110.994 154.847 111.138V110.994C154.847 110.85 154.991 110.85 154.991 110.706ZM175.871 86.6576V86.8016H175.727L175.871 86.6576ZM175.871 86.6576V86.8016H175.727L175.871 86.6576ZM155.135 108.834C155.135 108.69 155.279 108.546 155.279 108.258C155.279 108.546 155.135 108.69 155.135 108.834ZM155.711 122.082C155.711 122.082 155.855 122.226 155.855 122.37C155.855 122.226 155.711 122.226 155.711 122.082ZM160.175 74.4176C160.031 74.4176 160.031 74.5616 160.031 74.5616L160.175 74.4176ZM251.603 78.4496C250.739 74.7056 247.283 79.7456 246.563 80.6096L238.643 91.2656L230.867 101.49L226.691 106.818C226.259 107.394 223.091 111.426 223.379 111.426C223.667 111.138 224.099 111.138 224.531 110.706C222.371 113.01 214.451 120.21 213.011 118.482C211.859 117.042 215.027 110.994 215.459 109.554C217.043 105.378 218.483 101.058 220.211 97.0256C222.083 92.8496 224.243 88.6736 225.971 84.4976C227.699 80.0336 225.107 78.4496 220.931 77.4416C219.059 77.0096 216.755 77.0096 214.595 76.7216C214.595 76.8656 214.739 76.8656 214.739 76.8656C216.611 77.1536 219.347 77.2976 221.651 78.0176C218.195 77.0096 213.875 77.4416 211.139 76.7216C209.267 76.2896 208.115 76.2896 208.403 74.1296C208.691 71.2496 211.715 68.2256 212.723 65.4896C212.723 65.6336 211.715 68.2256 211.859 68.2256C212.579 68.5136 213.73 64.4816 213.73 63.9056C213.587 63.1856 211.859 61.0256 211.715 61.8896L212.003 62.3216C205.091 57.5696 196.883 67.3616 198.323 74.4176C198.611 75.4256 199.187 76.0016 199.619 77.1536C199.907 78.0176 199.619 79.0256 200.483 80.1776C203.507 83.9216 208.979 84.0656 213.299 83.2016C212.579 84.2096 204.947 100.338 205.379 100.482L204.371 104.082C204.227 103.938 204.803 102.786 204.515 102.786C203.507 102.642 201.491 110.994 201.347 111.714C200.771 115.17 200.915 118.194 202.355 121.362C203.219 123.378 204.227 125.106 206.099 126.258C207.827 127.41 209.987 127.986 212.003 127.554C212.723 127.266 215.459 125.394 214.739 125.538L215.747 125.106C215.603 125.25 215.459 125.394 215.459 125.538C215.891 125.682 222.515 120.354 223.379 119.778C227.987 115.89 231.731 111.138 235.187 106.386C238.643 101.49 242.243 96.5936 245.555 91.6976C247.139 89.3936 248.579 87.0896 249.731 84.6416C250.595 82.9136 252.035 80.4656 251.603 78.4496ZM208.547 95.7296C209.555 93.1376 210.707 90.6896 212.003 88.2416C212.291 87.8096 214.307 82.6256 215.315 82.3376C214.595 82.7696 211.57 89.8256 210.851 91.1216L208.115 97.4576C206.675 100.914 205.091 104.514 204.083 108.258C205.091 103.938 206.819 99.7616 208.547 95.7296ZM205.091 123.378C205.955 124.53 207.107 125.682 208.691 126.258C207.395 125.826 206.243 125.106 205.379 124.242C205.523 124.242 205.523 124.386 205.523 124.53C204.659 123.378 203.507 120.93 203.363 120.498C202.931 118.77 202.787 116.754 202.931 115.026C202.931 113.586 203.075 112.434 203.363 111.138V111.282C203.075 113.154 202.931 115.026 203.075 117.042V117.762C202.931 117.618 202.931 117.474 202.931 117.474C202.931 117.474 202.931 117.618 203.075 117.906V118.05L203.651 121.074L203.219 119.202C203.507 120.066 204.227 121.65 204.947 123.234L204.803 123.09C204.803 123.234 204.947 123.378 205.091 123.522V123.378ZM209.123 75.8576C209.843 76.4336 211.139 76.5776 212.435 76.7216C211.283 76.5776 210.275 76.2896 209.555 75.7136C209.555 75.7136 208.691 74.9936 208.547 74.7056C208.547 74.9936 208.835 75.7136 209.123 75.8576ZM224.243 87.0896L221.219 93.4256L224.243 86.9456V87.0896ZM203.507 110.706C203.507 110.85 203.363 110.994 203.363 111.138V110.994C203.363 110.85 203.507 110.85 203.507 110.706ZM224.387 86.6576V86.8016H224.243L224.387 86.6576ZM224.387 86.6576V86.8016H224.243L224.387 86.6576ZM203.651 108.834C203.651 108.69 203.795 108.546 203.795 108.258C203.795 108.546 203.651 108.69 203.651 108.834ZM204.227 122.082C204.227 122.082 204.371 122.226 204.371 122.37C204.371 122.226 204.227 122.226 204.227 122.082ZM208.691 74.4176C208.547 74.4176 208.547 74.5616 208.547 74.5616L208.691 74.4176ZM314.374 78.7376C314.23 75.5696 311.638 78.3056 310.774 79.4576C308.902 82.1936 307.174 85.0736 305.446 87.8096C301.558 93.7136 297.67 99.6176 293.206 105.234C278.374 123.522 288.742 90.9776 287.59 91.2656C287.014 91.4096 286.582 93.5696 286.438 94.0016C287.59 88.8176 289.75 82.6256 292.486 77.5856C294.07 74.4176 295.942 71.8256 293.062 68.3696C287.734 61.8896 281.542 67.7936 278.086 72.2576C276.646 66.7856 273.766 58.7216 266.71 58.7216C263.542 58.7216 261.67 60.3056 259.51 62.1776C258.214 63.0416 257.206 63.1856 256.054 64.1936C254.182 65.4896 252.886 67.5056 251.59 69.2336C246.694 76.4336 243.238 85.5056 241.654 93.8576C240.934 97.8896 240.646 102.354 241.798 106.386C242.518 108.69 245.11 113.874 248.422 113.442C248.566 113.442 248.278 113.298 247.846 113.01C249.862 113.586 252.166 113.298 253.894 112.146C254.038 112.434 252.31 113.154 252.31 113.154C253.894 115.602 265.702 101.346 266.566 100.05C268.438 97.4576 269.734 94.7216 271.462 91.9856C272.758 89.9696 274.774 87.3776 276.214 85.2176C276.07 86.2256 276.07 87.5216 276.07 87.5216C273.478 95.7296 271.03 104.658 274.486 113.154C276.07 117.474 279.958 121.506 284.854 120.642C289.174 119.922 292.774 115.746 295.366 112.434C298.534 108.69 301.27 104.514 304.006 100.194C306.31 96.3056 308.47 92.4176 310.342 88.0976C311.494 85.3616 314.662 82.0496 314.374 78.7376ZM273.046 79.7456C272.326 80.7536 271.606 81.7616 271.03 82.7696L267.286 88.0976C264.838 91.6976 262.246 95.1536 259.51 98.4656C258.79 99.4736 255.334 103.938 253.894 103.506C251.734 102.786 254.038 95.2976 254.326 94.1456C254.758 92.1296 262.39 69.9536 264.406 69.5216C261.814 69.3776 253.462 95.4416 253.03 97.6016C254.182 90.5456 256.774 83.6336 259.654 77.1536C261.238 73.8416 264.838 65.0576 269.59 65.0576C272.182 65.0576 272.758 70.3856 273.19 72.1136C273.046 71.8256 271.75 67.6496 271.606 67.7936C270.886 68.3696 273.766 76.2896 273.766 77.4416C273.766 78.5936 273.766 78.5936 273.046 79.7456ZM276.358 86.8016C276.358 86.8016 276.79 84.7856 276.934 84.3536L277.654 83.3456L276.358 86.8016ZM274.198 77.8736V76.4336C274.63 77.0096 274.63 77.4416 274.198 77.8736ZM368.78 44.4656C368.78 44.3216 368.636 44.0336 368.636 43.8896C368.636 44.0336 368.78 44.3216 368.78 44.4656L368.348 35.2496C368.348 35.3936 368.492 35.3936 368.492 35.3936C368.348 34.5296 368.348 33.6656 368.348 32.8016C368.204 32.5136 368.204 32.3696 368.204 32.0816C368.204 32.2256 368.348 32.3696 368.348 32.5136C368.348 32.2256 368.204 32.2256 368.204 31.9376V32.0816V31.7936V31.9376V31.6496V31.7936V30.2096C367.916 23.8736 367.628 18.9776 367.628 18.9776C367.628 18.9776 367.772 22.4336 367.916 26.4656C367.628 21.5696 367.052 16.5296 366.332 11.6336C366.476 12.2096 366.62 12.7856 366.908 12.6416C367.484 12.4976 366.332 6.44958 365.9 6.59358C365.756 6.88159 365.612 7.16958 365.612 7.31358C365.18 5.72959 365.18 4.57758 362.876 4.86559C359.996 5.00959 357.116 6.88159 354.812 8.46558C353.084 9.76159 350.348 11.6336 349.916 13.9376C349.628 15.2336 350.348 15.9536 350.348 16.9616C350.348 17.8256 349.916 18.9776 350.06 20.1296C350.204 21.5696 350.492 23.1536 350.78 24.5936C351.212 27.3296 351.788 30.0656 351.932 32.9456C352.076 34.0976 353.66 49.5056 353.516 49.9376C353.66 49.7936 353.66 49.5056 353.804 49.2176C353.804 50.5136 353.804 51.9536 353.948 53.2496C353.66 53.2496 353.804 52.0976 353.516 52.2416C352.076 52.5296 353.084 65.7776 353.228 67.3616C353.516 70.3856 353.228 73.2656 352.94 76.2896C352.94 77.5856 352.652 78.8816 352.796 80.1776C352.796 80.3216 352.94 83.3456 353.372 82.0496C353.372 82.4816 353.228 82.7696 353.228 83.0576C353.228 82.9136 353.084 82.7696 353.084 82.6256C352.796 82.7696 352.94 86.0816 352.94 86.0816C352.796 87.5216 352.364 88.3856 351.932 89.8256C350.78 93.8576 350.348 98.3216 349.772 102.498C349.052 106.962 348.332 111.426 346.892 115.746C346.172 117.618 344.156 120.354 344.156 122.37C344.012 128.418 356.54 125.826 358.7 122.946C362.3 118.194 363.164 111.282 365.9 105.954C369.932 98.1776 374.54 90.8336 378.86 83.3456C379.724 81.7616 380.3 79.7456 381.02 78.3056C382.316 75.4256 384.62 72.8336 386.348 70.2416C394.412 58.2896 402.764 46.9136 412.268 35.9696C415.004 32.8016 418.172 30.0656 421.196 27.1856C422.492 25.8896 424.076 24.8816 425.228 23.5856C426.38 22.4336 426.524 21.2816 427.676 20.2736C430.124 18.1136 439.916 16.3856 438.044 11.2016C437.324 9.32958 434.444 6.30559 432.14 7.02559C430.844 7.45758 431.276 7.88958 430.412 8.60958C427.1 11.4896 423.356 13.9376 420.188 17.1056C412.988 24.1616 406.796 31.9376 400.604 39.8576C393.404 49.3616 385.628 58.7216 380.012 69.2336C376.268 76.4336 371.228 82.9136 367.484 90.1136C367.484 89.9696 367.916 86.9456 367.34 87.2336C367.052 87.5216 366.908 87.9536 366.764 88.3856C367.916 79.6016 370.22 70.3856 369.644 60.8816L368.78 44.4656ZM357.116 77.2976C356.252 86.8016 355.676 96.1616 353.516 105.522C352.796 108.546 351.932 111.282 350.924 113.874C351.212 112.866 351.644 111.57 351.932 110.274C352.94 105.234 353.948 100.194 354.668 95.1536C356.396 82.6256 357.404 70.2416 357.26 57.7136C357.404 64.0496 357.548 70.6736 357.116 76.8656V77.2976ZM451.48 77.8736C451.48 78.0176 451.48 78.0176 451.336 77.8736V77.7296C449.032 73.8416 446.008 79.1696 444.712 81.0416C442.264 84.3536 439.96 87.5216 437.368 90.5456C435.208 93.1376 432.904 95.7296 431.176 98.4656C431.176 98.7536 430.888 99.4736 430.888 99.4736C430.312 100.338 429.448 101.058 428.728 101.922C427.432 103.218 426.136 104.658 424.696 105.954C422.536 107.97 410.44 119.346 408.856 112.002C407.992 108.402 409.144 103.938 409.864 100.482C410.296 98.6096 410.728 96.8816 411.016 95.0096C411.304 93.5696 410.872 92.1296 411.592 90.6896C412.024 89.8256 412.168 89.9696 413.176 89.6816L415.624 88.8176C417.208 88.2416 418.792 87.6656 420.232 86.8016C422.392 85.5056 424.408 83.9216 426.28 82.3376C430.744 78.5936 435.496 74.1296 437.368 68.5136C438.376 65.3456 438.52 61.8896 436.504 59.1536C434.632 56.7056 431.464 55.4096 428.584 54.8336C420.808 53.3936 414.904 57.8576 410.44 63.7616C404.968 70.5296 401.08 78.8816 399.208 87.3776C398.2 91.5536 397.624 95.7296 396.904 100.05C396.184 104.37 395.752 108.402 398.056 112.434C397.912 110.994 397.624 109.698 397.624 108.402C397.624 107.682 397.912 106.962 397.912 106.386C397.912 106.098 397.624 105.234 397.624 104.802C397.624 103.506 397.912 102.498 398.2 101.202C398.344 99.9056 398.2 98.6096 398.344 97.3136C398.488 95.8736 399.064 94.7216 399.64 93.4256C400.072 92.2736 400.216 91.2656 400.648 90.1136C401.08 89.1056 401.368 87.9536 401.8 86.8016C401.944 86.0816 402.664 85.2176 403.096 84.3536C402.664 85.6496 401.8 86.8016 401.512 87.9536C401.08 89.6816 401.368 91.5536 401.224 93.2816C400.936 95.1536 400.36 97.0256 400.072 99.0416C399.784 100.914 398.92 102.642 398.632 104.514C398.344 106.242 397.768 107.538 397.912 109.266C397.912 110.274 398.056 111.282 398.2 112.146C398.344 113.298 399.064 114.018 399.784 114.882C402.232 117.762 405.544 120.066 409.288 121.074C411.88 121.794 414.184 121.65 416.632 120.354C420.088 118.482 423.112 115.602 425.704 112.866C428.152 110.13 430.024 107.106 432.184 104.226C434.2 101.634 436.648 99.1856 438.664 96.5936L446.44 86.5136L450.904 80.6096C451.624 79.7456 452.056 79.0256 451.48 77.8736ZM415.768 79.4576C415.912 79.1696 415.912 79.0256 415.912 79.0256C418.072 74.4176 419.656 69.5216 422.68 65.0576L425.272 61.6016C425.848 60.8816 426.856 59.5856 427.864 59.2976C430.024 58.8656 430.6 62.6096 430.456 64.0496L429.88 67.0736C429.736 67.9376 430.024 68.5136 429.88 69.2336C429.592 70.0976 428.872 70.5296 428.44 71.2496L425.992 74.4176C422.68 78.3056 418.504 81.6176 413.896 84.0656C414.616 82.4816 415.048 80.8976 415.768 79.4576ZM500.087 78.4496C499.223 74.7056 495.767 79.7456 495.047 80.6096L487.127 91.2656L479.351 101.49L475.175 106.818C474.743 107.394 471.575 111.426 471.863 111.426C472.151 111.138 472.583 111.138 473.015 110.706C470.855 113.01 462.935 120.21 461.495 118.482C460.343 117.042 463.511 110.994 463.943 109.554C465.527 105.378 466.967 101.058 468.695 97.0256C470.567 92.8496 472.727 88.6736 474.455 84.4976C476.183 80.0336 473.591 78.4496 469.415 77.4416C467.543 77.0096 465.239 77.0096 463.079 76.7216C463.079 76.8656 463.223 76.8656 463.223 76.8656C465.095 77.1536 467.831 77.2976 470.135 78.0176C466.679 77.0096 462.359 77.4416 459.623 76.7216C457.751 76.2896 456.599 76.2896 456.887 74.1296C457.175 71.2496 460.199 68.2256 461.207 65.4896C461.207 65.6336 460.199 68.2256 460.343 68.2256C461.063 68.5136 462.215 64.4816 462.215 63.9056C462.071 63.1856 460.343 61.0256 460.199 61.8896L460.487 62.3216C453.575 57.5696 445.367 67.3616 446.807 74.4176C447.095 75.4256 447.671 76.0016 448.103 77.1536C448.391 78.0176 448.103 79.0256 448.967 80.1776C451.991 83.9216 457.463 84.0656 461.783 83.2016C461.063 84.2096 453.431 100.338 453.863 100.482L452.855 104.082C452.711 103.938 453.287 102.786 452.999 102.786C451.991 102.642 449.975 110.994 449.831 111.714C449.255 115.17 449.399 118.194 450.839 121.362C451.703 123.378 452.711 125.106 454.583 126.258C456.311 127.41 458.471 127.986 460.487 127.554C461.207 127.266 463.943 125.394 463.223 125.538L464.231 125.106C464.087 125.25 463.943 125.394 463.943 125.538C464.375 125.682 470.999 120.354 471.863 119.778C476.471 115.89 480.215 111.138 483.671 106.386C487.127 101.49 490.727 96.5936 494.039 91.6976C495.623 89.3936 497.063 87.0896 498.215 84.6416C499.079 82.9136 500.519 80.4656 500.087 78.4496ZM457.031 95.7296C458.039 93.1376 459.191 90.6896 460.487 88.2416C460.775 87.8096 462.791 82.6256 463.799 82.3376C463.079 82.7696 460.055 89.8256 459.335 91.1216L456.599 97.4576C455.159 100.914 453.575 104.514 452.567 108.258C453.575 103.938 455.303 99.7616 457.031 95.7296ZM453.575 123.378C454.439 124.53 455.591 125.682 457.175 126.258C455.879 125.826 454.727 125.106 453.863 124.242C454.007 124.242 454.007 124.386 454.007 124.53C453.143 123.378 451.991 120.93 451.847 120.498C451.415 118.77 451.271 116.754 451.415 115.026C451.415 113.586 451.559 112.434 451.847 111.138V111.282C451.559 113.154 451.415 115.026 451.559 117.042V117.762C451.415 117.618 451.415 117.474 451.415 117.474C451.415 117.474 451.415 117.618 451.559 117.906V118.05L452.135 121.074L451.703 119.202C451.991 120.066 452.711 121.65 453.431 123.234L453.287 123.09C453.287 123.234 453.431 123.378 453.575 123.522V123.378ZM457.607 75.8576C458.327 76.4336 459.623 76.5776 460.919 76.7216C459.767 76.5776 458.759 76.2896 458.039 75.7136C458.039 75.7136 457.175 74.9936 457.031 74.7056C457.031 74.9936 457.319 75.7136 457.607 75.8576ZM472.727 87.0896L469.703 93.4256L472.727 86.9456V87.0896ZM451.991 110.706C451.991 110.85 451.847 110.994 451.847 111.138V110.994C451.847 110.85 451.991 110.85 451.991 110.706ZM472.871 86.6576V86.8016H472.727L472.871 86.6576ZM472.871 86.6576V86.8016H472.727L472.871 86.6576ZM452.135 108.834C452.135 108.69 452.279 108.546 452.279 108.258C452.279 108.546 452.135 108.69 452.135 108.834ZM452.711 122.082C452.711 122.082 452.855 122.226 452.855 122.37C452.855 122.226 452.711 122.226 452.711 122.082ZM457.175 74.4176C457.031 74.4176 457.031 74.5616 457.031 74.5616L457.175 74.4176ZM574.667 78.3056V78.1616C573.803 73.4096 567.323 81.3296 566.459 82.0496C562.282 86.6576 558.395 91.6976 554.651 96.7376C550.907 101.922 547.307 107.106 543.419 112.29C541.547 114.882 539.675 117.33 537.515 119.634C536.795 120.498 535.067 122.946 533.771 122.946C528.731 122.946 532.619 102.642 533.195 99.4736C534.059 93.8576 534.491 86.3696 538.091 81.9056C538.955 80.7536 548.747 68.2256 548.747 68.2256C548.459 68.0816 547.307 69.5216 546.587 70.3856L552.779 62.0336L553.211 61.4576H553.355H553.211L554.363 59.8736C554.507 60.0176 554.363 60.3056 554.219 60.5936L555.515 59.1536L559.259 54.2576C561.995 50.3696 564.587 46.1936 567.035 42.1616C570.922 35.5376 576.251 26.0336 573.371 17.9696C571.211 12.0656 563.291 10.9136 557.963 12.9296C554.075 14.3696 550.763 17.3936 548.027 20.5616C546.587 22.4336 545.147 24.4496 543.851 26.6096C543.419 27.1856 541.547 31.7936 541.115 32.3696H541.259C540.395 33.9536 539.531 35.5376 538.955 37.1216C539.243 35.9696 539.963 33.6656 540.539 33.2336C539.387 34.0976 538.379 38.2736 538.091 38.7056C532.619 50.6576 527.867 62.7536 524.411 75.4256C520.523 70.9616 514.331 63.3296 507.562 66.0656C501.947 68.3696 497.771 74.2736 494.891 79.4576C492.299 84.0656 491.579 88.8176 489.707 93.2816C486.394 100.914 484.811 116.61 496.043 118.914C499.499 119.634 502.667 117.474 505.403 115.602C510.299 112.002 514.907 107.826 519.227 103.506C518.507 111.138 516.923 122.658 523.115 128.706C530.747 136.482 538.379 125.97 542.987 120.21C548.891 112.722 553.499 104.37 559.403 97.1696C562.282 93.7136 565.163 90.2576 568.187 87.0896C570.491 84.7856 575.099 81.9056 574.667 78.3056ZM521.675 87.8096C521.531 88.2416 521.531 88.5296 521.531 88.5296C520.955 91.9856 520.955 95.0096 518.507 97.4576C516.347 99.7616 514.043 101.922 511.739 104.082C509.579 106.098 504.395 112.002 501.083 111.714C497.051 111.282 500.075 102.066 502.091 96.4496C499.931 102.21 496.475 111.57 501.227 111.858C502.523 112.002 504.683 110.85 506.555 109.266C504.827 110.85 501.947 113.01 500.219 112.146C496.907 110.706 499.787 102.498 500.363 100.194C502.235 93.5696 504.971 87.2336 508.139 81.1856C509.723 78.1616 512.027 73.2656 515.051 72.9776L514.331 73.4096C514.475 73.2656 514.619 73.2656 514.763 73.2656C515.771 72.9776 516.779 73.6976 517.499 74.2736C519.371 75.5696 520.523 78.0176 521.819 79.8896C523.259 82.1936 522.251 84.6416 521.675 87.2336V87.8096ZM544.859 54.5456C544.859 54.4016 544.859 54.1136 545.003 53.9696V53.8256C545.147 53.3936 545.291 53.2496 545.291 53.2496V53.1056C548.603 43.8896 552.203 34.6736 557.387 26.3216C558.683 24.1616 562.427 17.5376 565.739 19.4096C567.035 20.1296 567.323 22.0016 567.323 23.2976C567.899 31.9376 560.987 42.1616 556.667 49.0736C551.627 57.1376 546.011 65.0576 540.107 72.4016L543.275 69.0896L546.155 65.4896L538.811 74.9936L537.803 76.2896L537.227 76.8656C537.371 76.0016 538.091 75.1376 538.811 74.1296C538.523 74.4176 538.235 74.7056 538.091 74.9936C539.963 68.8016 541.979 62.6096 544.139 56.4176C543.995 56.5616 544.139 56.2736 544.283 55.6976L544.715 54.9776C544.715 54.8336 544.715 54.6896 544.859 54.5456ZM532.763 66.3536C532.475 67.0736 531.611 70.3856 531.179 70.8176C531.179 70.9616 531.035 71.1056 530.891 71.1056C532.043 69.6656 531.323 67.7936 531.898 66.0656C532.187 65.2016 533.627 63.6176 533.915 62.4656C533.915 63.6176 533.195 65.6336 532.763 66.3536ZM509.867 106.242C513.467 103.074 516.923 99.7616 520.235 96.3056C519.947 98.1776 515.483 101.346 513.899 102.786C512.027 104.658 509.867 106.53 507.707 108.258H507.562L509.867 106.242ZM535.355 53.2496C534.779 54.9776 534.059 56.5616 533.195 58.1456C533.915 55.9856 534.347 53.8256 535.355 51.8096C536.219 50.2256 537.227 48.2096 537.947 46.3376C537.227 48.6416 536.075 51.0896 535.355 53.2496ZM544.715 54.9776L544.139 56.4176C544.139 56.2736 544.283 55.9856 544.283 55.6976L544.715 54.9776ZM513.611 73.9856C513.035 74.4176 512.603 74.9936 512.459 74.9936C512.747 74.9936 513.179 74.4176 513.611 73.9856ZM517.643 73.6976C517.931 73.8416 518.219 73.9856 518.507 74.2736L517.643 73.6976ZM546.155 71.1056C546.155 70.9616 546.299 70.8176 546.443 70.6736C546.299 70.9616 546.155 71.1056 546.155 71.1056ZM546.443 70.6736L546.587 70.3856C546.587 70.5296 546.443 70.6736 546.443 70.6736ZM619.246 77.8736C619.246 78.0176 619.246 78.0176 619.102 77.8736V77.7296C616.798 73.8416 613.774 79.1696 612.478 81.0416C610.03 84.3536 607.726 87.5216 605.134 90.5456C602.974 93.1376 600.67 95.7296 598.942 98.4656C598.942 98.7536 598.654 99.4736 598.654 99.4736C598.078 100.338 597.214 101.058 596.494 101.922C595.198 103.218 593.902 104.658 592.462 105.954C590.302 107.97 578.206 119.346 576.622 112.002C575.758 108.402 576.91 103.938 577.63 100.482C578.062 98.6096 578.494 96.8816 578.782 95.0096C579.07 93.5696 578.638 92.1296 579.358 90.6896C579.79 89.8256 579.934 89.9696 580.942 89.6816L583.39 88.8176C584.974 88.2416 586.558 87.6656 587.998 86.8016C590.158 85.5056 592.174 83.9216 594.046 82.3376C598.51 78.5936 603.262 74.1296 605.134 68.5136C606.142 65.3456 606.286 61.8896 604.27 59.1536C602.398 56.7056 599.23 55.4096 596.35 54.8336C588.574 53.3936 582.67 57.8576 578.206 63.7616C572.734 70.5296 568.846 78.8816 566.974 87.3776C565.966 91.5536 565.39 95.7296 564.67 100.05C563.95 104.37 563.518 108.402 565.822 112.434C565.678 110.994 565.39 109.698 565.39 108.402C565.39 107.682 565.678 106.962 565.678 106.386C565.678 106.098 565.39 105.234 565.39 104.802C565.39 103.506 565.678 102.498 565.966 101.202C566.11 99.9056 565.966 98.6096 566.11 97.3136C566.254 95.8736 566.83 94.7216 567.406 93.4256C567.838 92.2736 567.982 91.2656 568.414 90.1136C568.846 89.1056 569.134 87.9536 569.566 86.8016C569.71 86.0816 570.43 85.2176 570.862 84.3536C570.43 85.6496 569.566 86.8016 569.278 87.9536C568.846 89.6816 569.134 91.5536 568.99 93.2816C568.702 95.1536 568.126 97.0256 567.838 99.0416C567.55 100.914 566.686 102.642 566.398 104.514C566.11 106.242 565.534 107.538 565.678 109.266C565.678 110.274 565.822 111.282 565.966 112.146C566.11 113.298 566.83 114.018 567.55 114.882C569.998 117.762 573.31 120.066 577.054 121.074C579.646 121.794 581.95 121.65 584.398 120.354C587.854 118.482 590.878 115.602 593.47 112.866C595.918 110.13 597.79 107.106 599.95 104.226C601.966 101.634 604.414 99.1856 606.43 96.5936L614.206 86.5136L618.67 80.6096C619.39 79.7456 619.822 79.0256 619.246 77.8736ZM583.534 79.4576C583.678 79.1696 583.678 79.0256 583.678 79.0256C585.838 74.4176 587.422 69.5216 590.446 65.0576L593.038 61.6016C593.614 60.8816 594.622 59.5856 595.63 59.2976C597.79 58.8656 598.366 62.6096 598.222 64.0496L597.646 67.0736C597.502 67.9376 597.79 68.5136 597.646 69.2336C597.358 70.0976 596.638 70.5296 596.206 71.2496L593.758 74.4176C590.446 78.3056 586.27 81.6176 581.662 84.0656C582.382 82.4816 582.814 80.8976 583.534 79.4576Z" fill="#237D37"/>
</svg>
